<svg width="1280" height="657" viewBox="0 0 1280 657" fill="none" xmlns="http://www.w3.org/2000/svg">
<line x1="973.962" y1="535.654" x2="898.438" y2="478.311" stroke="#E10098" stroke-opacity="0.44"/>
<line x1="895.828" y1="476.903" x2="883.436" y2="382.89" stroke="#E10098" stroke-opacity="0.44"/>
<circle cx="976.444" cy="537.546" r="4" transform="rotate(154.854 976.444 537.546)" fill="#84376B"/>
<circle cx="815.292" cy="469.583" r="4" transform="rotate(154.854 815.292 469.583)" fill="#84376B"/>
<circle cx="896.08" cy="476.952" r="4" transform="rotate(154.854 896.08 476.952)" fill="#84376B"/>
<circle cx="884.033" cy="385.394" r="4" transform="rotate(154.854 884.033 385.394)" fill="#84376B"/>
<line x1="896.035" y1="477.45" x2="815.247" y2="470.08" stroke="#E10098" stroke-opacity="0.44"/>
<line y1="-0.5" x2="64.9342" y2="-0.5" transform="matrix(-0.802402 -0.596783 0.612476 -0.790489 376.022 218.567)" stroke="#E10098" stroke-opacity="0.46"/>
<line y1="-0.5" x2="40.9464" y2="-0.5" transform="matrix(-0.791686 -0.610928 0.626025 -0.779803 408.257 243.409)" stroke="#E10098" stroke-opacity="0.46"/>
<line y1="-0.5" x2="19.9937" y2="-0.5" transform="matrix(-0.793455 -0.608628 0.623824 -0.781565 424.121 255.578)" stroke="#E10098" stroke-opacity="0.46"/>
<line y1="-0.5" x2="65.1532" y2="-0.5" transform="matrix(0.780677 -0.624935 0.633592 0.773667 322.247 179.095)" stroke="#E10098" stroke-opacity="0.46"/>
<ellipse cx="376.054" cy="219.295" rx="2.79081" ry="2.72472" transform="rotate(154.854 376.054 219.295)" fill="#84376B"/>
<ellipse cx="302.127" cy="239.652" rx="2.79081" ry="2.72472" transform="rotate(154.854 302.127 239.652)" fill="#84376B"/>
<ellipse cx="322.076" cy="179.175" rx="2.79081" ry="2.72472" transform="rotate(154.854 322.076 179.175)" fill="#84376B"/>
<ellipse cx="371.935" cy="139.292" rx="2.79081" ry="2.72472" transform="rotate(154.854 371.935 139.292)" fill="#84376B"/>
<ellipse cx="424.342" cy="255.795" rx="2.79081" ry="2.72472" transform="rotate(154.854 424.342 255.795)" fill="#84376B"/>
<ellipse cx="408.471" cy="244.31" rx="2.79081" ry="2.72472" transform="rotate(154.854 408.471 244.31)" fill="#84376B"/>
<ellipse cx="276.676" cy="149.057" rx="2.79081" ry="2.72472" transform="rotate(154.854 276.676 149.057)" fill="#84376B"/>
<line x1="322.551" y1="179.333" x2="302.918" y2="238.158" stroke="#E10098" stroke-opacity="0.46"/>
<line y1="-0.5" x2="55.796" y2="-0.5" transform="matrix(0.827278 0.561793 -0.578868 0.815422 276.455 148.84)" stroke="#E10098" stroke-opacity="0.46"/>
<line x1="280.551" y1="672.534" x2="351.163" y2="609.241" stroke="#E10098" stroke-opacity="0.33"/>
<line x1="354.404" y1="605.615" x2="449.062" y2="611.259" stroke="#E10098" stroke-opacity="0.33"/>
<circle cx="376.849" cy="527.925" r="4" transform="rotate(-104.225 376.849 527.925)" fill="#84376B"/>
<path d="M307.795 512.02C309.937 511.478 312.113 512.773 312.655 514.915C313.198 517.056 311.902 519.232 309.761 519.775C307.62 520.318 305.444 519.022 304.901 516.881C304.358 514.739 305.654 512.563 307.795 512.02Z" fill="#84376B"/>
<path d="M307.795 512.02C309.937 511.478 312.113 512.773 312.655 514.915C313.198 517.056 311.902 519.232 309.761 519.775C307.62 520.318 305.444 519.022 304.901 516.881C304.358 514.739 305.654 512.563 307.795 512.02Z" fill="#84376B"/>
<path d="M294.194 589.793C296.335 589.251 298.511 590.547 299.054 592.688C299.597 594.829 298.301 597.005 296.159 597.548C294.018 598.091 291.842 596.795 291.299 594.654C290.756 592.512 292.052 590.336 294.194 589.793Z" fill="#84376B"/>
<path d="M351.936 601.953C354.077 601.41 356.253 602.706 356.796 604.848C357.339 606.989 356.043 609.165 353.901 609.708C351.76 610.251 349.584 608.955 349.041 606.813C348.498 604.672 349.794 602.496 351.936 601.953Z" fill="#84376B"/>
<circle cx="446.49" cy="611.371" r="4" transform="rotate(-104.225 446.49 611.371)" fill="#84376B"/>
<line x1="353.827" y1="605.715" x2="376.369" y2="527.786" stroke="#E10098" stroke-opacity="0.33"/>
<line x1="350.305" y1="605.245" x2="294.288" y2="594.701" stroke="#E10098" stroke-opacity="0.33"/>
<line x1="352.844" y1="605.795" x2="309.087" y2="515.877" stroke="#E10098" stroke-opacity="0.33"/>
<line x1="1034.14" y1="172.473" x2="1056.97" y2="143.349" stroke="#E10098" stroke-opacity="0.44"/>
<line x1="1041.41" y1="108.251" x2="1056.41" y2="145.291" stroke="#E10098" stroke-opacity="0.44"/>
<line x1="1003.77" y1="103.961" x2="1043.32" y2="109.709" stroke="#E10098" stroke-opacity="0.44"/>
<line x1="995.659" y1="80.8122" x2="1005.05" y2="103.102" stroke="#E10098" stroke-opacity="0.44"/>
<line x1="1057.08" y1="142.897" x2="1093.44" y2="148.04" stroke="#E10098" stroke-opacity="0.44"/>
<line x1="1110.77" y1="126.599" x2="1093.76" y2="148.839" stroke="#E10098" stroke-opacity="0.44"/>
<line x1="1093.83" y1="148.349" x2="1107.7" y2="182.881" stroke="#E10098" stroke-opacity="0.44"/>
<line x1="1107.32" y1="182.574" x2="1134.28" y2="186.828" stroke="#E10098" stroke-opacity="0.44"/>
<line x1="1134.67" y1="187.135" x2="1146.39" y2="216.247" stroke="#E10098" stroke-opacity="0.44"/>
<line x1="1146.07" y1="216.913" x2="1116.59" y2="225.835" stroke="#E10098" stroke-opacity="0.44"/>
<line x1="1146.41" y1="216.552" x2="1139.96" y2="243.093" stroke="#E10098" stroke-opacity="0.44"/>
<line x1="1145.95" y1="215.935" x2="1177.54" y2="217.433" stroke="#E10098" stroke-opacity="0.44"/>
<circle cx="1005.38" cy="103.903" r="4" transform="rotate(37.4104 1005.38 103.903)" fill="#84376B"/>
<circle cx="1145.93" cy="216.434" r="4" transform="rotate(37.4104 1145.93 216.434)" fill="#84376B"/>
<circle cx="1107.85" cy="182.273" r="4" transform="rotate(37.4104 1107.85 182.273)" fill="#84376B"/>
<circle cx="1134.2" cy="187.322" r="4" transform="rotate(37.4104 1134.2 187.322)" fill="#84376B"/>
<circle cx="1093.37" cy="148.535" r="4" transform="rotate(37.4104 1093.37 148.535)" fill="#84376B"/>
<circle cx="1056.41" cy="144.187" r="4" transform="rotate(37.4104 1056.41 144.187)" fill="#84376B"/>
<circle cx="1034.53" cy="172.781" r="4" transform="rotate(37.4104 1034.53 172.781)" fill="#84376B"/>
<circle cx="1040.94" cy="108.439" r="4" transform="rotate(37.4104 1040.94 108.439)" fill="#84376B"/>
<g filter="url(#filter0_d_14_411)">
<circle cx="77" cy="95" r="10" fill="#E10098" fill-opacity="0.28" shape-rendering="crispEdges"/>
</g>
<g filter="url(#filter1_d_14_411)">
<circle cx="265" cy="435" r="10" fill="#E10098" fill-opacity="0.28" shape-rendering="crispEdges"/>
</g>
<g filter="url(#filter2_d_14_411)">
<circle cx="442.5" cy="332.5" r="12.5" fill="#E10098" fill-opacity="0.28" shape-rendering="crispEdges"/>
</g>
<g filter="url(#filter3_d_14_411)">
<circle cx="577" cy="192" r="10" fill="#E10098" fill-opacity="0.18" shape-rendering="crispEdges"/>
</g>
<g filter="url(#filter4_d_14_411)">
<circle cx="879" cy="230" r="10" fill="#E10098" fill-opacity="0.28" shape-rendering="crispEdges"/>
</g>
<g filter="url(#filter5_d_14_411)">
<circle cx="61" cy="420" r="10" fill="#E10098" fill-opacity="0.21" shape-rendering="crispEdges"/>
</g>
<g filter="url(#filter6_d_14_411)">
<circle cx="323" cy="66" r="15" fill="#E10098" fill-opacity="0.28" shape-rendering="crispEdges"/>
</g>
<g filter="url(#filter7_d_14_411)">
<circle cx="1158" cy="546" r="15" fill="#E10098" fill-opacity="0.15" shape-rendering="crispEdges"/>
</g>
<g filter="url(#filter8_d_14_411)">
<circle cx="630" cy="517" r="10" fill="#E10098" fill-opacity="0.29" shape-rendering="crispEdges"/>
</g>
<g filter="url(#filter9_d_14_411)">
<circle cx="25" cy="631" r="10" fill="#E10098" fill-opacity="0.28" shape-rendering="crispEdges"/>
</g>
<g filter="url(#filter10_d_14_411)">
<circle cx="1260" cy="631" r="10" fill="#E10098" fill-opacity="0.28" shape-rendering="crispEdges"/>
</g>
<g filter="url(#filter11_d_14_411)">
<circle cx="859" cy="101" r="10" fill="#E10098" fill-opacity="0.28" shape-rendering="crispEdges"/>
</g>
<g filter="url(#filter12_d_14_411)">
<circle cx="1097" cy="420" r="10" fill="#E10098" fill-opacity="0.28" shape-rendering="crispEdges"/>
</g>
<g filter="url(#filter13_d_14_411)">
<circle cx="925" cy="651" r="10" fill="#E10098" fill-opacity="0.28" shape-rendering="crispEdges"/>
</g>
<defs>
<filter id="filter0_d_14_411" x="-18" y="0" width="190" height="190" filterUnits="userSpaceOnUse" color-interpolation-filters="sRGB">
<feFlood flood-opacity="0" result="BackgroundImageFix"/>
<feColorMatrix in="SourceAlpha" type="matrix" values="0 0 0 0 0 0 0 0 0 0 0 0 0 0 0 0 0 0 127 0" result="hardAlpha"/>
<feMorphology radius="33" operator="dilate" in="SourceAlpha" result="effect1_dropShadow_14_411"/>
<feOffset/>
<feGaussianBlur stdDeviation="26"/>
<feComposite in2="hardAlpha" operator="out"/>
<feColorMatrix type="matrix" values="0 0 0 0 0.882353 0 0 0 0 0 0 0 0 0 0.596078 0 0 0 0.33 0"/>
<feBlend mode="normal" in2="BackgroundImageFix" result="effect1_dropShadow_14_411"/>
<feBlend mode="normal" in="SourceGraphic" in2="effect1_dropShadow_14_411" result="shape"/>
</filter>
<filter id="filter1_d_14_411" x="170" y="340" width="190" height="190" filterUnits="userSpaceOnUse" color-interpolation-filters="sRGB">
<feFlood flood-opacity="0" result="BackgroundImageFix"/>
<feColorMatrix in="SourceAlpha" type="matrix" values="0 0 0 0 0 0 0 0 0 0 0 0 0 0 0 0 0 0 127 0" result="hardAlpha"/>
<feMorphology radius="33" operator="dilate" in="SourceAlpha" result="effect1_dropShadow_14_411"/>
<feOffset/>
<feGaussianBlur stdDeviation="26"/>
<feComposite in2="hardAlpha" operator="out"/>
<feColorMatrix type="matrix" values="0 0 0 0 0.882353 0 0 0 0 0 0 0 0 0 0.596078 0 0 0 0.33 0"/>
<feBlend mode="normal" in2="BackgroundImageFix" result="effect1_dropShadow_14_411"/>
<feBlend mode="normal" in="SourceGraphic" in2="effect1_dropShadow_14_411" result="shape"/>
</filter>
<filter id="filter2_d_14_411" x="430" y="320" width="25" height="25" filterUnits="userSpaceOnUse" color-interpolation-filters="sRGB">
<feFlood flood-opacity="0" result="BackgroundImageFix"/>
<feColorMatrix in="SourceAlpha" type="matrix" values="0 0 0 0 0 0 0 0 0 0 0 0 0 0 0 0 0 0 127 0" result="hardAlpha"/>
<feOffset/>
<feComposite in2="hardAlpha" operator="out"/>
<feColorMatrix type="matrix" values="0 0 0 0 0.882353 0 0 0 0 0 0 0 0 0 0.596078 0 0 0 0.33 0"/>
<feBlend mode="normal" in2="BackgroundImageFix" result="effect1_dropShadow_14_411"/>
<feBlend mode="normal" in="SourceGraphic" in2="effect1_dropShadow_14_411" result="shape"/>
</filter>
<filter id="filter3_d_14_411" x="567" y="182" width="20" height="20" filterUnits="userSpaceOnUse" color-interpolation-filters="sRGB">
<feFlood flood-opacity="0" result="BackgroundImageFix"/>
<feColorMatrix in="SourceAlpha" type="matrix" values="0 0 0 0 0 0 0 0 0 0 0 0 0 0 0 0 0 0 127 0" result="hardAlpha"/>
<feOffset/>
<feComposite in2="hardAlpha" operator="out"/>
<feColorMatrix type="matrix" values="0 0 0 0 0.882353 0 0 0 0 0 0 0 0 0 0.596078 0 0 0 0.33 0"/>
<feBlend mode="normal" in2="BackgroundImageFix" result="effect1_dropShadow_14_411"/>
<feBlend mode="normal" in="SourceGraphic" in2="effect1_dropShadow_14_411" result="shape"/>
</filter>
<filter id="filter4_d_14_411" x="869" y="220" width="20" height="20" filterUnits="userSpaceOnUse" color-interpolation-filters="sRGB">
<feFlood flood-opacity="0" result="BackgroundImageFix"/>
<feColorMatrix in="SourceAlpha" type="matrix" values="0 0 0 0 0 0 0 0 0 0 0 0 0 0 0 0 0 0 127 0" result="hardAlpha"/>
<feOffset/>
<feComposite in2="hardAlpha" operator="out"/>
<feColorMatrix type="matrix" values="0 0 0 0 0.882353 0 0 0 0 0 0 0 0 0 0.596078 0 0 0 0.33 0"/>
<feBlend mode="normal" in2="BackgroundImageFix" result="effect1_dropShadow_14_411"/>
<feBlend mode="normal" in="SourceGraphic" in2="effect1_dropShadow_14_411" result="shape"/>
</filter>
<filter id="filter5_d_14_411" x="51" y="410" width="20" height="20" filterUnits="userSpaceOnUse" color-interpolation-filters="sRGB">
<feFlood flood-opacity="0" result="BackgroundImageFix"/>
<feColorMatrix in="SourceAlpha" type="matrix" values="0 0 0 0 0 0 0 0 0 0 0 0 0 0 0 0 0 0 127 0" result="hardAlpha"/>
<feOffset/>
<feComposite in2="hardAlpha" operator="out"/>
<feColorMatrix type="matrix" values="0 0 0 0 0.882353 0 0 0 0 0 0 0 0 0 0.596078 0 0 0 0.33 0"/>
<feBlend mode="normal" in2="BackgroundImageFix" result="effect1_dropShadow_14_411"/>
<feBlend mode="normal" in="SourceGraphic" in2="effect1_dropShadow_14_411" result="shape"/>
</filter>
<filter id="filter6_d_14_411" x="308" y="51" width="30" height="30" filterUnits="userSpaceOnUse" color-interpolation-filters="sRGB">
<feFlood flood-opacity="0" result="BackgroundImageFix"/>
<feColorMatrix in="SourceAlpha" type="matrix" values="0 0 0 0 0 0 0 0 0 0 0 0 0 0 0 0 0 0 127 0" result="hardAlpha"/>
<feOffset/>
<feComposite in2="hardAlpha" operator="out"/>
<feColorMatrix type="matrix" values="0 0 0 0 0.882353 0 0 0 0 0 0 0 0 0 0.596078 0 0 0 0.33 0"/>
<feBlend mode="normal" in2="BackgroundImageFix" result="effect1_dropShadow_14_411"/>
<feBlend mode="normal" in="SourceGraphic" in2="effect1_dropShadow_14_411" result="shape"/>
</filter>
<filter id="filter7_d_14_411" x="1143" y="531" width="30" height="30" filterUnits="userSpaceOnUse" color-interpolation-filters="sRGB">
<feFlood flood-opacity="0" result="BackgroundImageFix"/>
<feColorMatrix in="SourceAlpha" type="matrix" values="0 0 0 0 0 0 0 0 0 0 0 0 0 0 0 0 0 0 127 0" result="hardAlpha"/>
<feOffset/>
<feComposite in2="hardAlpha" operator="out"/>
<feColorMatrix type="matrix" values="0 0 0 0 0.882353 0 0 0 0 0 0 0 0 0 0.596078 0 0 0 0.33 0"/>
<feBlend mode="normal" in2="BackgroundImageFix" result="effect1_dropShadow_14_411"/>
<feBlend mode="normal" in="SourceGraphic" in2="effect1_dropShadow_14_411" result="shape"/>
</filter>
<filter id="filter8_d_14_411" x="535" y="422" width="190" height="190" filterUnits="userSpaceOnUse" color-interpolation-filters="sRGB">
<feFlood flood-opacity="0" result="BackgroundImageFix"/>
<feColorMatrix in="SourceAlpha" type="matrix" values="0 0 0 0 0 0 0 0 0 0 0 0 0 0 0 0 0 0 127 0" result="hardAlpha"/>
<feMorphology radius="33" operator="dilate" in="SourceAlpha" result="effect1_dropShadow_14_411"/>
<feOffset/>
<feGaussianBlur stdDeviation="26"/>
<feComposite in2="hardAlpha" operator="out"/>
<feColorMatrix type="matrix" values="0 0 0 0 0.882353 0 0 0 0 0 0 0 0 0 0.596078 0 0 0 0.35 0"/>
<feBlend mode="normal" in2="BackgroundImageFix" result="effect1_dropShadow_14_411"/>
<feBlend mode="normal" in="SourceGraphic" in2="effect1_dropShadow_14_411" result="shape"/>
</filter>
<filter id="filter9_d_14_411" x="-70" y="536" width="190" height="190" filterUnits="userSpaceOnUse" color-interpolation-filters="sRGB">
<feFlood flood-opacity="0" result="BackgroundImageFix"/>
<feColorMatrix in="SourceAlpha" type="matrix" values="0 0 0 0 0 0 0 0 0 0 0 0 0 0 0 0 0 0 127 0" result="hardAlpha"/>
<feMorphology radius="33" operator="dilate" in="SourceAlpha" result="effect1_dropShadow_14_411"/>
<feOffset/>
<feGaussianBlur stdDeviation="26"/>
<feComposite in2="hardAlpha" operator="out"/>
<feColorMatrix type="matrix" values="0 0 0 0 0.882353 0 0 0 0 0 0 0 0 0 0.596078 0 0 0 0.33 0"/>
<feBlend mode="normal" in2="BackgroundImageFix" result="effect1_dropShadow_14_411"/>
<feBlend mode="normal" in="SourceGraphic" in2="effect1_dropShadow_14_411" result="shape"/>
</filter>
<filter id="filter10_d_14_411" x="1165" y="536" width="190" height="190" filterUnits="userSpaceOnUse" color-interpolation-filters="sRGB">
<feFlood flood-opacity="0" result="BackgroundImageFix"/>
<feColorMatrix in="SourceAlpha" type="matrix" values="0 0 0 0 0 0 0 0 0 0 0 0 0 0 0 0 0 0 127 0" result="hardAlpha"/>
<feMorphology radius="33" operator="dilate" in="SourceAlpha" result="effect1_dropShadow_14_411"/>
<feOffset/>
<feGaussianBlur stdDeviation="26"/>
<feComposite in2="hardAlpha" operator="out"/>
<feColorMatrix type="matrix" values="0 0 0 0 0.882353 0 0 0 0 0 0 0 0 0 0.596078 0 0 0 0.33 0"/>
<feBlend mode="normal" in2="BackgroundImageFix" result="effect1_dropShadow_14_411"/>
<feBlend mode="normal" in="SourceGraphic" in2="effect1_dropShadow_14_411" result="shape"/>
</filter>
<filter id="filter11_d_14_411" x="764" y="6" width="190" height="190" filterUnits="userSpaceOnUse" color-interpolation-filters="sRGB">
<feFlood flood-opacity="0" result="BackgroundImageFix"/>
<feColorMatrix in="SourceAlpha" type="matrix" values="0 0 0 0 0 0 0 0 0 0 0 0 0 0 0 0 0 0 127 0" result="hardAlpha"/>
<feMorphology radius="33" operator="dilate" in="SourceAlpha" result="effect1_dropShadow_14_411"/>
<feOffset/>
<feGaussianBlur stdDeviation="26"/>
<feComposite in2="hardAlpha" operator="out"/>
<feColorMatrix type="matrix" values="0 0 0 0 0.882353 0 0 0 0 0 0 0 0 0 0.596078 0 0 0 0.33 0"/>
<feBlend mode="normal" in2="BackgroundImageFix" result="effect1_dropShadow_14_411"/>
<feBlend mode="normal" in="SourceGraphic" in2="effect1_dropShadow_14_411" result="shape"/>
</filter>
<filter id="filter12_d_14_411" x="1002" y="325" width="190" height="190" filterUnits="userSpaceOnUse" color-interpolation-filters="sRGB">
<feFlood flood-opacity="0" result="BackgroundImageFix"/>
<feColorMatrix in="SourceAlpha" type="matrix" values="0 0 0 0 0 0 0 0 0 0 0 0 0 0 0 0 0 0 127 0" result="hardAlpha"/>
<feMorphology radius="33" operator="dilate" in="SourceAlpha" result="effect1_dropShadow_14_411"/>
<feOffset/>
<feGaussianBlur stdDeviation="26"/>
<feComposite in2="hardAlpha" operator="out"/>
<feColorMatrix type="matrix" values="0 0 0 0 0.882353 0 0 0 0 0 0 0 0 0 0.596078 0 0 0 0.33 0"/>
<feBlend mode="normal" in2="BackgroundImageFix" result="effect1_dropShadow_14_411"/>
<feBlend mode="normal" in="SourceGraphic" in2="effect1_dropShadow_14_411" result="shape"/>
</filter>
<filter id="filter13_d_14_411" x="830" y="556" width="190" height="190" filterUnits="userSpaceOnUse" color-interpolation-filters="sRGB">
<feFlood flood-opacity="0" result="BackgroundImageFix"/>
<feColorMatrix in="SourceAlpha" type="matrix" values="0 0 0 0 0 0 0 0 0 0 0 0 0 0 0 0 0 0 127 0" result="hardAlpha"/>
<feMorphology radius="33" operator="dilate" in="SourceAlpha" result="effect1_dropShadow_14_411"/>
<feOffset/>
<feGaussianBlur stdDeviation="26"/>
<feComposite in2="hardAlpha" operator="out"/>
<feColorMatrix type="matrix" values="0 0 0 0 0.882353 0 0 0 0 0 0 0 0 0 0.596078 0 0 0 0.33 0"/>
<feBlend mode="normal" in2="BackgroundImageFix" result="effect1_dropShadow_14_411"/>
<feBlend mode="normal" in="SourceGraphic" in2="effect1_dropShadow_14_411" result="shape"/>
</filter>
</defs>
</svg>
