<svg width="120" height="120" viewBox="0 0 120 120" fill="none" xmlns="http://www.w3.org/2000/svg">
<g clip-path="url(#clip0_4_205)">
<path d="M16.322 91.456L11.922 88.912L60.994 3.92L65.394 6.464L16.322 91.456Z" fill="#E10098"/>
<path d="M10.91 82.12H109.062V87.208H10.91V82.12Z" fill="#E10098"/>
<path d="M61.946 113.328L12.854 84.984L15.398 80.584L64.49 108.928L61.946 113.328ZM104.594 39.448L55.498 11.108L58.042 6.70799L107.134 35.052L104.594 39.448Z" fill="#E10098"/>
<path d="M15.41 39.432L12.866 35.032L62.002 6.67999L64.546 11.08L15.41 39.432Z" fill="#E10098"/>
<path d="M103.69 91.456L54.61 6.456L59.01 3.912L108.09 88.912L103.69 91.456ZM14.802 31.656H19.89V88.344H14.802V31.656ZM100.114 31.656H105.202V88.344H100.114V31.656Z" fill="#E10098"/>
<path d="M61.082 111.172L58.862 107.324L101.562 82.672L103.782 86.52L61.082 111.172Z" fill="#E10098"/>
<path d="M111.942 90.0009C110.521 92.4556 108.184 94.2469 105.445 94.9824C102.705 95.7179 99.7857 95.3377 97.326 93.9249C94.8713 92.5035 93.08 90.1671 92.3445 87.4276C91.609 84.688 91.9893 81.7686 93.402 79.3089C94.8234 76.8542 97.1598 75.0629 99.8993 74.3274C102.639 73.5919 105.558 73.9722 108.018 75.3849C113.166 78.3569 114.914 84.8849 111.938 90.0009M26.57 40.6969C25.1486 43.1516 22.8122 44.9429 20.0727 45.6784C17.3331 46.4139 14.4137 46.0336 11.954 44.6209C9.49819 43.1995 7.70612 40.8624 6.97056 38.1219C6.23501 35.3813 6.61599 32.461 8.03 30.0009C9.45141 27.5462 11.7878 25.7549 14.5273 25.0194C17.2669 24.2839 20.1863 24.6642 22.646 26.0769C25.1007 27.4983 26.892 29.8347 27.6275 32.5742C28.363 35.3138 27.9827 38.2372 26.57 40.6969ZM8.062 90.0009C6.64926 87.5412 6.26898 84.6218 7.00448 81.8822C7.73997 79.1427 9.53127 76.8063 11.986 75.3849C14.4457 73.9722 17.3651 73.5919 20.1047 74.3274C22.8442 75.0629 25.1806 76.8542 26.602 79.3089C28.0147 81.7686 28.395 84.688 27.6595 87.4276C26.924 90.1671 25.1327 92.5035 22.678 93.9249C17.53 96.8649 10.998 95.1209 8.062 90.0009ZM93.434 40.7009C92.0213 38.2412 91.641 35.3218 92.3765 32.5822C93.112 29.8427 94.9033 27.5063 97.358 26.0849C99.8177 24.6722 102.737 24.2919 105.477 25.0274C108.216 25.7629 110.553 27.5542 111.974 30.0089C113.387 32.4686 113.767 35.388 113.032 38.1276C112.296 40.8671 110.505 43.2035 108.05 44.6249C105.59 46.0376 102.671 46.4179 99.9313 45.6824C97.1918 44.9469 94.8554 43.1556 93.434 40.7009ZM60.002 120.001C57.8864 120.001 55.8182 119.374 54.0592 118.198C52.3002 117.023 50.9292 115.352 50.1198 113.397C49.3104 111.442 49.0988 109.292 49.5118 107.217C49.9248 105.142 50.9439 103.236 52.4402 101.74C53.9365 100.245 55.8427 99.2262 57.9178 98.8139C59.9929 98.4017 62.1436 98.6141 64.098 99.4242C66.0523 100.234 67.7225 101.606 68.8973 103.365C70.0722 105.125 70.6988 107.193 70.698 109.309C70.6906 112.143 69.5612 114.859 67.5568 116.863C65.5524 118.866 62.8361 119.995 60.002 120.001ZM60.002 21.3929C58.5968 21.395 57.205 21.1198 55.9063 20.583C54.6077 20.0462 53.4277 19.2584 52.4341 18.2648C51.4404 17.2712 50.6527 16.0912 50.1159 14.7926C49.5791 13.4939 49.3039 12.1021 49.306 10.6969C49.306 7.86067 50.4327 5.14061 52.4382 3.1351C54.4437 1.12959 57.1638 0.00289917 60 0.00289917C62.8362 0.00289917 65.5563 1.12959 67.5618 3.1351C69.5673 5.14061 70.694 7.86067 70.694 10.6969C70.6956 12.1014 70.4201 13.4925 69.8833 14.7904C69.3466 16.0883 68.5591 17.2676 67.5659 18.2608C66.5727 19.254 65.3934 20.0415 64.0955 20.5782C62.7976 21.115 61.4065 21.3945 60.002 21.3929Z" fill="#E10098"/>
</g>
<defs>
<clipPath id="clip0_4_205">
<rect width="120" height="120" fill="white"/>
</clipPath>
</defs>
</svg>
