<svg width="44" height="44" viewBox="0 0 44 44" fill="none" xmlns="http://www.w3.org/2000/svg">
<g clip-path="url(#clip0_1_10)">
<path d="M5.98473 33.5339L4.3714 32.6011L22.3645 1.43733L23.9778 2.37013L5.98473 33.5339Z" fill="#E10098"/>
<path d="M4.00031 30.1107H39.9894V31.9763H4.00031V30.1107Z" fill="#E10098"/>
<path d="M22.7135 41.5536L4.71313 31.1608L5.64593 29.5475L23.6463 39.9403L22.7135 41.5536ZM38.3511 14.4643L20.3493 4.07293L21.2821 2.4596L39.2825 12.8524L38.3511 14.4643Z" fill="#E10098"/>
<path d="M5.65033 14.4584L4.71753 12.8451L22.7341 2.44933L23.6669 4.06267L5.65033 14.4584Z" fill="#E10098"/>
<path d="M38.0197 33.5339L20.0237 2.3672L21.637 1.4344L39.633 32.6011L38.0197 33.5339ZM5.42743 11.6072H7.29303V32.3928H5.42743V11.6072ZM36.7085 11.6072H38.5741V32.3928H36.7085V11.6072Z" fill="#E10098"/>
<path d="M22.3968 40.7631L21.5828 39.3521L37.2394 30.3131L38.0534 31.724L22.3968 40.7631Z" fill="#E10098"/>
<path d="M41.0454 33.0003C40.5242 33.9004 39.6676 34.5572 38.6631 34.8269C37.6585 35.0966 36.5881 34.9571 35.6862 34.4391C34.7861 33.918 34.1293 33.0613 33.8597 32.0568C33.59 31.0523 33.7294 29.9818 34.2474 29.0799C34.7686 28.1799 35.6253 27.5231 36.6298 27.2534C37.6343 26.9837 38.7047 27.1231 39.6066 27.6411C41.4942 28.7309 42.1351 31.1245 41.0439 33.0003M9.74234 14.9222C9.22115 15.8223 8.36448 16.4791 7.35998 16.7488C6.35548 17.0184 5.28504 16.879 4.38314 16.361C3.48268 15.8398 2.82558 14.9829 2.55588 13.978C2.28618 12.9732 2.42587 11.9024 2.94434 11.0003C3.46553 10.1003 4.3222 9.44346 5.3267 9.17377C6.3312 8.90409 7.40164 9.04353 8.30354 9.56153C9.2036 10.0827 9.86041 10.9394 10.1301 11.9439C10.3998 12.9484 10.2603 14.0203 9.74234 14.9222ZM2.95607 33.0003C2.43807 32.0984 2.29863 31.028 2.56832 30.0235C2.838 29.019 3.49481 28.1623 4.39487 27.6411C5.29677 27.1231 6.36721 26.9837 7.37171 27.2534C8.37622 27.5231 9.23289 28.1799 9.75407 29.0799C10.2721 29.9818 10.4115 31.0523 10.1418 32.0568C9.87215 33.0613 9.21534 33.918 8.31527 34.4391C6.42767 35.5171 4.03261 34.8777 2.95607 33.0003ZM34.2591 14.9237C33.7411 14.0218 33.6017 12.9513 33.8714 11.9468C34.1411 10.9423 34.7979 10.0857 35.6979 9.56446C36.5998 9.04646 37.6703 8.90703 38.6748 9.17671C39.6793 9.44639 40.536 10.1032 41.0571 11.0033C41.5751 11.9052 41.7146 12.9756 41.4449 13.9801C41.1752 14.9846 40.5184 15.8413 39.6183 16.3625C38.7164 16.8805 37.646 17.0199 36.6415 16.7502C35.637 16.4805 34.7803 15.8237 34.2591 14.9237ZM22.0007 44.0003C21.225 44.0003 20.4667 43.7703 19.8217 43.3393C19.1767 42.9083 18.6741 42.2957 18.3773 41.579C18.0805 40.8623 18.0029 40.0736 18.1543 39.3128C18.3058 38.552 18.6795 37.8532 19.2281 37.3048C19.7767 36.7563 20.4757 36.3829 21.2365 36.2318C21.9974 36.0806 22.786 36.1585 23.5026 36.4556C24.2192 36.7526 24.8316 37.2555 25.2624 37.9007C25.6931 38.5458 25.9229 39.3042 25.9226 40.0799C25.9199 41.1191 25.5058 42.1149 24.7708 42.8496C24.0359 43.5843 23.0399 43.998 22.0007 44.0003ZM22.0007 7.84406C21.4855 7.84484 20.9752 7.74392 20.499 7.5471C20.0228 7.35028 19.5902 7.06143 19.2258 6.6971C18.8615 6.33277 18.5727 5.90012 18.3758 5.42395C18.179 4.94777 18.0781 4.43744 18.0789 3.9222C18.0789 2.88225 18.492 1.88489 19.2273 1.14954C19.9627 0.414183 20.9601 0.0010643 22 0.0010643C23.04 0.0010643 24.0373 0.414183 24.7727 1.14954C25.508 1.88489 25.9211 2.88225 25.9211 3.9222C25.9217 4.4372 25.8207 4.94725 25.6239 5.42315C25.4271 5.89906 25.1383 6.33147 24.7742 6.69563C24.41 7.05979 23.9776 7.34854 23.5017 7.54535C23.0258 7.74217 22.5157 7.84464 22.0007 7.84406Z" fill="#E10098"/>
</g>
<defs>
<clipPath id="clip0_1_10">
<rect width="44" height="44" fill="white"/>
</clipPath>
</defs>
</svg>
