<?xml version="1.0" encoding="utf-8"?>
<!-- Generator: Adobe Illustrator 21.0.2, SVG Export Plug-In . SVG Version: 6.00 Build 0)  -->
<svg version="1.1" id="Layer_1" xmlns="http://www.w3.org/2000/svg" xmlns:xlink="http://www.w3.org/1999/xlink" x="0px" y="0px"
	 viewBox="0 0 74 74.1" style="enable-background:new 0 0 74 74.1;" xml:space="preserve">
<style type="text/css">
	.st0{fill:#FFFFFF;}
</style>
<path class="st0" d="M36.9,2.1C16.5,2.1,0,18.2,0,38c0,15.8,10.6,29.3,25.2,34c1.8,0.3,2.5-0.8,2.5-1.7c0-0.9,0-3.7,0-6.7
	c-10.3,2.2-12.4-4.2-12.4-4.2c-1.7-4.1-4.1-5.2-4.1-5.2c-3.3-2.2,0.3-2.2,0.3-2.2c3.7,0.3,5.7,3.7,5.7,3.7c3.3,5.5,8.6,3.9,10.7,3
	c0.3-2.3,1.3-3.9,2.3-4.8c-8.2-0.9-16.8-4-16.8-17.7c0-3.9,1.4-7.1,3.8-9.6c-0.4-0.9-1.6-4.5,0.4-9.5c0,0,3.1-1,10.1,3.7
	c2.9-0.8,6.1-1.2,9.2-1.2c3.1,0,6.3,0.4,9.2,1.2c7-4.6,10.1-3.7,10.1-3.7c2,4.9,0.7,8.6,0.4,9.5c2.4,2.5,3.8,5.7,3.8,9.6
	c0,13.8-8.6,16.8-16.8,17.7c1.3,1.1,2.5,3.3,2.5,6.6c0,4.8,0,8.7,0,9.8c0,1,0.7,2.1,2.5,1.7c14.6-4.7,25.2-18.2,25.2-34
	C73.7,18.2,57.2,2.1,36.9,2.1z"/>
<path class="st0" d="M13.8,55.2c-0.1,0.2-0.4,0.2-0.6,0.1c-0.3-0.1-0.4-0.4-0.3-0.5c0.1-0.2,0.4-0.2,0.6-0.1
	C13.7,54.7,13.9,55,13.8,55.2z M15.6,56.7c-0.2,0.2-0.5,0.1-0.8-0.2c-0.2-0.2-0.3-0.6-0.1-0.7c0.2-0.2,0.5-0.1,0.8,0.2
	C15.8,56.2,15.8,56.6,15.6,56.7 M16.9,58.8c-0.2,0.2-0.6,0-0.8-0.3c-0.2-0.3-0.2-0.7,0-0.9c0.2-0.2,0.6,0,0.8,0.3
	C17.1,58.2,17.1,58.6,16.9,58.8 M19,61.1c-0.2,0.2-0.6,0.2-0.9-0.1c-0.3-0.3-0.4-0.7-0.2-0.9c0.2-0.2,0.6-0.2,1,0.1
	C19.1,60.5,19.2,60.9,19,61.1z M21.7,61.9c-0.1,0.3-0.5,0.4-0.9,0.3c-0.4-0.1-0.7-0.5-0.6-0.7c0.1-0.3,0.5-0.4,0.9-0.3
	C21.5,61.3,21.8,61.6,21.7,61.9z M24.8,62.2c0,0.3-0.3,0.5-0.8,0.5c-0.4,0-0.8-0.2-0.8-0.5c0-0.3,0.3-0.5,0.8-0.5
	C24.4,61.7,24.8,61.9,24.8,62.2z M27.8,62.1c0.1,0.3-0.3,0.6-0.7,0.7c-0.4,0.1-0.8-0.1-0.9-0.4c-0.1-0.3,0.3-0.6,0.7-0.7
	C27.4,61.6,27.8,61.8,27.8,62.1z"/>
</svg>
