<svg width="65" height="65" viewBox="0 0 65 65" fill="none" xmlns="http://www.w3.org/2000/svg">
<g clip-path="url(#clip0_14_287)">
<path d="M8.84108 49.5386L6.45775 48.1606L33.0384 2.12329L35.4217 3.50129L8.84108 49.5386Z" fill="#E10098"/>
<path d="M5.90958 44.4817H59.0753V47.2377H5.90958V44.4817Z" fill="#E10098"/>
<path d="M33.5541 61.386L6.96258 46.033L8.34058 43.6497L34.9321 59.0027L33.5541 61.386ZM56.6551 21.3677L30.0614 6.01688L31.4394 3.63354L58.0309 18.9865L56.6551 21.3677Z" fill="#E10098"/>
<path d="M8.34708 21.3591L6.96908 18.9757L33.5844 3.61841L34.9624 6.00174L8.34708 21.3591Z" fill="#E10098"/>
<path d="M56.1654 49.5386L29.5804 3.4969L31.9638 2.1189L58.5488 48.1606L56.1654 49.5386ZM8.01775 17.1469H10.7737V47.8529H8.01775V17.1469ZM54.2284 17.1469H56.9844V47.8529H54.2284V17.1469Z" fill="#E10098"/>
<path d="M33.0861 60.2183L31.8836 58.1339L55.0127 44.7808L56.2153 46.8651L33.0861 60.2183Z" fill="#E10098"/>
<path d="M60.6353 48.7504C59.8653 50.08 58.5998 51.0503 57.1159 51.4487C55.6319 51.8471 54.0506 51.6411 52.7183 50.8759C51.3886 50.106 50.4183 48.8404 50.0199 47.3565C49.6215 45.8726 49.8275 44.2912 50.5928 42.9589C51.3627 41.6292 52.6282 40.659 54.1122 40.2606C55.5961 39.8622 57.1774 40.0682 58.5098 40.8334C61.2983 42.4432 62.2451 45.9792 60.6331 48.7504M14.3921 22.0441C13.6221 23.3737 12.3566 24.344 10.8727 24.7424C9.38877 25.1408 7.80743 24.9348 6.47508 24.1696C5.14485 23.3996 4.17415 22.1337 3.77572 20.6492C3.3773 19.1648 3.58366 17.5829 4.34958 16.2504C5.11952 14.9207 6.38505 13.9505 7.86898 13.5521C9.3529 13.1537 10.9342 13.3596 12.2666 14.1249C13.5962 14.8948 14.5665 16.1604 14.9649 17.6443C15.3633 19.1282 15.1573 20.7117 14.3921 22.0441ZM4.36692 48.7504C3.60168 47.418 3.3957 45.8367 3.79409 44.3528C4.19249 42.8689 5.16277 41.6033 6.49242 40.8334C7.82477 40.0682 9.4061 39.8622 10.89 40.2606C12.3739 40.659 13.6395 41.6292 14.4094 42.9589C15.1747 44.2912 15.3806 45.8726 14.9822 47.3565C14.5838 48.8404 13.6136 50.106 12.2839 50.8759C9.49542 52.4684 5.95725 51.5237 4.36692 48.7504ZM50.6101 22.0462C49.8449 20.7139 49.6389 19.1325 50.0373 17.6486C50.4357 16.1647 51.406 14.8992 52.7356 14.1292C54.0679 13.364 55.6493 13.158 57.1332 13.5564C58.6171 13.9548 59.8827 14.9251 60.6526 16.2547C61.4178 17.5871 61.6238 19.1684 61.2254 20.6523C60.827 22.1362 59.8567 23.4018 58.5271 24.1717C57.1947 24.937 55.6134 25.1429 54.1295 24.7445C52.6456 24.3461 51.38 23.3759 50.6101 22.0462ZM32.5011 65.0004C31.3551 65.0004 30.2349 64.6605 29.2821 64.0238C28.3293 63.3871 27.5867 62.4821 27.1482 61.4234C26.7098 60.3646 26.5952 59.1996 26.8189 58.0756C27.0426 56.9517 27.5946 55.9194 28.4051 55.1092C29.2156 54.299 30.2481 53.7474 31.3721 53.5241C32.4961 53.3008 33.6611 53.4159 34.7197 53.8547C35.7783 54.2935 36.683 55.0365 37.3194 55.9895C37.9558 56.9426 38.2952 58.0629 38.2948 59.2089C38.2908 60.744 37.679 62.2151 36.5933 63.3004C35.5076 64.3857 34.0362 64.997 32.5011 65.0004ZM32.5011 11.5877C31.7399 11.5889 30.986 11.4398 30.2826 11.149C29.5792 10.8583 28.94 10.4316 28.4018 9.89334C27.8636 9.35512 27.4369 8.71597 27.1461 8.01254C26.8554 7.3091 26.7063 6.5552 26.7074 5.79405C26.7074 4.25776 27.3177 2.78439 28.404 1.69807C29.4903 0.611753 30.9637 0.00146484 32.5 0.00146484C34.0363 0.00146484 35.5097 0.611753 36.596 1.69807C37.6823 2.78439 38.2926 4.25776 38.2926 5.79405C38.2934 6.55484 38.1442 7.30833 37.8535 8.01137C37.5627 8.71442 37.1362 9.3532 36.5982 9.89117C36.0602 10.4291 35.4215 10.8557 34.7184 11.1464C34.0154 11.4372 33.2619 11.5886 32.5011 11.5877Z" fill="#E10098"/>
</g>
<defs>
<clipPath id="clip0_14_287">
<rect width="65" height="65" fill="white"/>
</clipPath>
</defs>
</svg>
