<?xml version="1.0" encoding="utf-8"?>
<!-- Generator: Adobe Illustrator 21.0.2, SVG Export Plug-In . SVG Version: 6.00 Build 0)  -->
<svg version="1.1" id="Layer_1" xmlns="http://www.w3.org/2000/svg" xmlns:xlink="http://www.w3.org/1999/xlink" x="0px" y="0px"
	 viewBox="0 0 66.5 66.5" style="enable-background:new 0 0 66.5 66.5;" xml:space="preserve">
<style type="text/css">
	.st0{fill:#99424F;}
</style>
<path class="st0" d="M59.2,32.8c0-3.9-2.6-7.1-6.2-8l8-23.5H21.5l8,23.6c-3.4,1-6,4.2-6,8c0,2.8,1.4,5.2,3.5,6.8
	c-0.8,1.2-1.8,2.3-2.9,3.3c-2.1,1.9-4.3,3.4-6.8,4.4c-2.2-1.5-3.2-4.1-2.3-6.5c3.4-1,5.9-4.2,5.9-7.9c0-4.6-3.7-8.3-8.3-8.3
	c-4.6,0-8.3,3.7-8.3,8.3c0,2.2,0.9,4.3,2.4,5.8l-0.4,0.8C5,42,3.6,44.9,3.1,48.1C2,54.6,3.7,59.8,8,62.8c2.4,1.7,5,2.5,7.9,2.5
	c4.9,0,9.8-2.4,14.6-4.8c3.4-1.7,6.9-3.4,10.4-4.3c1.3-0.3,2.6-0.5,4-0.7c2.9-0.4,5.8-0.8,8.5-2.4c3.1-1.8,5.2-4.8,5.8-8.2
	c0.5-2.7,0-5.3-1.2-7.7C58.7,35.9,59.2,34.4,59.2,32.8L59.2,32.8z M55.6,32.8c0,2.6-2.1,4.7-4.7,4.7s-4.7-2.1-4.7-4.7
	c0-0.8,0.2-1.6,0.6-2.3c0.1-0.3,0.3-0.5,0.5-0.7c0.2-0.2,0.4-0.4,0.6-0.6l0,0c0.1-0.1,0.3-0.2,0.5-0.3c0,0,0,0,0,0
	c0.1,0,0.1-0.1,0.2-0.1c0,0,0,0,0.1,0c0.1,0,0.2-0.1,0.3-0.1c0.1,0,0.2-0.1,0.3-0.1c0,0,0,0,0.1,0c0.1,0,0.1-0.1,0.2-0.1
	c0,0,0.1,0,0.1,0l0.3-0.1h0l0.3-0.1c0,0,0.1,0,0.1,0c0.1,0,0.1,0,0.2,0h0.1c0.1,0,0.2,0,0.3,0h0.2c0.1,0,0.1,0,0.2,0h0
	c0.1,0,0.3,0,0.4,0.1c1.1,0.2,2,0.8,2.7,1.6C55.2,30.7,55.6,31.7,55.6,32.8L55.6,32.8z M26.6,5h29.1l-6.7,19.7
	c-0.3,0.1-0.6,0.1-0.8,0.2l-7-14.4l-7.1,14.3c-0.3-0.1-0.6-0.1-0.9-0.2L26.6,5z M39.9,31.2c-0.4-1.7-1.2-3.3-2.5-4.4l3.8-7.7
	l3.9,7.9c-1.2,1.2-2,2.7-2.3,4.3H39.9z M30.6,28.2l0.3-0.1h0.1c0.1,0,0.1,0,0.2,0h0.1c0.1,0,0.1,0,0.2,0h0.7c0.1,0,0.1,0,0.2,0
	c0,0,0.1,0,0.1,0c0.1,0,0.1,0,0.2,0c0,0,0,0,0.1,0l0.3,0.1c0.1,0,0.2,0,0.2,0.1c0,0,0,0,0.1,0c0.1,0,0.1,0,0.2,0.1c0,0,0,0,0.1,0
	c0.1,0,0.1,0.1,0.2,0.1h0c0.1,0,0.2,0.1,0.2,0.1c0.1,0,0.2,0.1,0.2,0.1c0,0,0,0,0,0c0.1,0,0.1,0.1,0.2,0.1l0,0
	c0.2,0.2,0.4,0.4,0.6,0.5l0,0c0.2,0.2,0.4,0.4,0.5,0.7c0.5,0.8,0.8,1.6,0.8,2.6c0,2.6-2.1,4.7-4.7,4.7s-4.7-2.1-4.7-4.7
	C27.1,30.6,28.6,28.8,30.6,28.2L30.6,28.2z M12.4,28.1c2.6,0,4.7,2.1,4.7,4.7s-2.1,4.7-4.7,4.7c-2.6,0-4.7-2.1-4.7-4.7
	S9.8,28.1,12.4,28.1z M55.5,44.2c-0.4,2.4-1.9,4.4-4,5.7c-2,1.2-4.5,1.5-7.1,1.9c-1.4,0.2-2.9,0.4-4.4,0.8
	c-3.9,0.9-7.6,2.8-11.2,4.6c-4.6,2.3-8.9,4.4-13,4.4c-2.1,0-4-0.6-5.7-1.8c-4.1-2.8-3.9-8.1-3.4-11c0.4-2.7,1.7-5.2,2.9-7.7
	c0.1-0.1,0.1-0.3,0.2-0.4c0.4,0.1,0.8,0.3,1.3,0.3c-0.7,3.9,1.3,8,5.2,10l0.7,0.4l0.8-0.3c3.2-1.2,6.2-3,8.9-5.5
	c1.5-1.4,2.8-2.9,3.9-4.6c0.4,0.1,0.9,0.1,1.3,0.1c3.9,0,7.1-2.7,8-6.2h3.1c0.9,3.6,4.2,6.2,8,6.2c1.5,0,2.9-0.4,4.2-1.1
	C55.6,41.3,55.7,42.7,55.5,44.2L55.5,44.2z"/>
</svg>
