<svg width="75" height="75" viewBox="0 0 75 75" fill="none" xmlns="http://www.w3.org/2000/svg">
<g clip-path="url(#clip0_14_282)">
<path d="M35.0466 0.0584941C34.8855 0.0731411 34.3729 0.124406 33.9115 0.161023C23.2704 1.1204 13.3031 6.86203 6.99029 15.6869C3.47501 20.5936 1.22669 26.1595 0.377164 32.0549C0.0769007 34.1128 0.0402832 34.7206 0.0402832 37.5109C0.0402832 40.3011 0.0769007 40.909 0.377164 42.9669C2.4131 57.0354 12.4243 68.8555 26.0021 73.2349C28.4335 74.0186 30.9967 74.5532 33.9115 74.8754C35.0466 74.9999 39.9534 74.9999 41.0885 74.8754C46.1198 74.3188 50.382 73.0738 54.5857 70.928C55.2302 70.5985 55.3547 70.5106 55.2668 70.4374C55.2082 70.3934 52.4619 66.7097 49.1663 62.257L43.1757 54.1645L35.6691 43.0548C31.5387 36.947 28.1406 31.9524 28.1113 31.9524C28.082 31.945 28.0527 36.8811 28.038 42.9083C28.0161 53.4615 28.0087 53.8862 27.8769 54.1352C27.6865 54.4941 27.54 54.6406 27.2325 54.8017C26.9981 54.9189 26.793 54.9408 25.6872 54.9408H24.4202L24.0833 54.7284C23.8636 54.5893 23.7025 54.4062 23.5927 54.1938L23.4389 53.8643L23.4535 39.1806L23.4755 24.4897L23.7025 24.2041C23.8197 24.0503 24.0687 23.8526 24.2445 23.7574C24.5447 23.6109 24.6619 23.5962 25.9289 23.5962C27.4229 23.5962 27.6719 23.6548 28.06 24.0796C28.1699 24.1968 32.2344 30.3192 37.0972 37.694C41.96 45.0687 48.6098 55.1386 51.876 60.0819L57.8081 69.0679L58.1083 68.8701C60.7668 67.1418 63.579 64.6811 65.8053 62.1179C70.5436 56.6765 73.5976 50.0414 74.6228 42.9669C74.9231 40.909 74.9597 40.3011 74.9597 37.5109C74.9597 34.7206 74.9231 34.1128 74.6228 32.0549C72.5869 17.9864 62.5757 6.1663 48.9979 1.78684C46.6031 1.01055 44.0545 0.475934 41.1984 0.1537C40.4953 0.0804646 35.6545 -9.38959e-05 35.0466 0.0584941ZM50.382 22.7174C50.7336 22.8932 51.0192 23.2301 51.1217 23.5816C51.1803 23.772 51.195 27.8439 51.1803 37.0202L51.1583 50.1879L48.8368 46.6287L46.5079 43.0694V33.4976C46.5079 27.3092 46.5372 23.8306 46.5811 23.6621C46.6983 23.252 46.9546 22.9298 47.3062 22.7394C47.6064 22.5856 47.7163 22.5709 48.8661 22.5709C49.95 22.5709 50.1404 22.5856 50.382 22.7174Z" fill="white"/>
<path d="M57.4419 69.229C57.1856 69.3901 57.105 69.5 57.332 69.3755C57.4932 69.2803 57.7568 69.0825 57.7129 69.0752C57.6909 69.0752 57.5664 69.1484 57.4419 69.229ZM56.9366 69.5585C56.8048 69.6611 56.8048 69.6684 56.9659 69.5878C57.0538 69.5439 57.127 69.4926 57.127 69.478C57.127 69.4194 57.0904 69.434 56.9366 69.5585ZM56.5704 69.7782C56.4386 69.8808 56.4386 69.8881 56.5997 69.8075C56.6876 69.7636 56.7608 69.7123 56.7608 69.6977C56.7608 69.6391 56.7242 69.6538 56.5704 69.7782ZM56.2042 69.998C56.0724 70.1005 56.0724 70.1078 56.2335 70.0273C56.3214 69.9833 56.3946 69.932 56.3946 69.9174C56.3946 69.8588 56.358 69.8735 56.2042 69.998ZM55.6476 70.2909C55.3693 70.4374 55.384 70.496 55.6623 70.3568C55.7868 70.2909 55.882 70.225 55.882 70.2103C55.882 70.1591 55.8747 70.1664 55.6476 70.2909Z" fill="white"/>
</g>
<defs>
<clipPath id="clip0_14_282">
<rect width="75" height="75" fill="white"/>
</clipPath>
</defs>
</svg>
