<?xml version="1.0" encoding="utf-8"?>
<!-- Generator: Adobe Illustrator 21.0.2, SVG Export Plug-In . SVG Version: 6.00 Build 0)  -->
<svg version="1.1" id="Layer_1" xmlns="http://www.w3.org/2000/svg" xmlns:xlink="http://www.w3.org/1999/xlink" x="0px" y="0px"
	 viewBox="0 0 64 64.1" style="enable-background:new 0 0 64 64.1;" xml:space="preserve">
<style type="text/css">
	.st0{fill:#00D8FF;}
	.st1{fill:none;stroke:#00D8FF;stroke-width:2.7341;}
</style>
<path class="st0" d="M32,37.7c3.2,0,5.7-2.6,5.7-5.7c0-3.2-2.6-5.7-5.7-5.7c-3.2,0-5.7,2.6-5.7,5.7C26.2,35.2,28.8,37.7,32,37.7z"/>
<path class="st1" d="M32,20.4c7.7,0,14.8,1.1,20.2,3c6.5,2.2,10.5,5.6,10.5,8.7c0,3.2-4.2,6.8-11.2,9.1c-5.3,1.7-12.2,2.7-19.5,2.7
	c-7.5,0-14.5-0.9-19.9-2.7C5.4,38.8,1.3,35.1,1.3,32c0-3,3.8-6.4,10.2-8.6C16.9,21.5,24.2,20.4,32,20.4L32,20.4z"/>
<path class="st1" d="M21.8,26.2c3.8-6.6,8.3-12.3,12.6-16C39.6,5.7,44.6,4,47.2,5.5c2.8,1.6,3.8,7,2.3,14.2
	c-1.1,5.4-3.8,11.9-7.4,18.2c-3.7,6.5-8,12.2-12.2,15.9c-5.4,4.7-10.5,6.4-13.2,4.8c-2.6-1.5-3.6-6.5-2.4-13.1
	C15.3,39.8,18,32.9,21.8,26.2L21.8,26.2z"/>
<path class="st1" d="M21.8,37.9C18,31.3,15.4,24.5,14.3,19C13,12.2,13.9,7.1,16.6,5.6c2.8-1.6,8,0.3,13.5,5.1
	c4.1,3.7,8.4,9.2,12,15.5c3.7,6.5,6.5,13,7.6,18.5c1.4,7,0.3,12.3-2.4,13.9c-2.6,1.5-7.4-0.1-12.6-4.5
	C30.4,50.4,25.7,44.6,21.8,37.9L21.8,37.9z"/>
</svg>
