<svg width="1133" height="613" viewBox="0 0 1133 613" fill="none" xmlns="http://www.w3.org/2000/svg">
<line x1="922.962" y1="496.654" x2="847.438" y2="439.311" stroke="#E10098" stroke-opacity="0.44"/>
<line x1="844.828" y1="437.903" x2="832.436" y2="343.89" stroke="#E10098" stroke-opacity="0.44"/>
<circle cx="925.444" cy="498.546" r="4" transform="rotate(154.854 925.444 498.546)" fill="#84376B"/>
<circle cx="764.292" cy="430.583" r="4" transform="rotate(154.854 764.292 430.583)" fill="#84376B"/>
<circle cx="845.08" cy="437.952" r="4" transform="rotate(154.854 845.08 437.952)" fill="#84376B"/>
<circle cx="833.033" cy="346.394" r="4" transform="rotate(154.854 833.033 346.394)" fill="#84376B"/>
<line x1="845.035" y1="438.45" x2="764.247" y2="431.08" stroke="#E10098" stroke-opacity="0.44"/>
<line y1="-0.5" x2="64.9342" y2="-0.5" transform="matrix(-0.802402 -0.596783 0.612476 -0.790489 351.022 111.567)" stroke="#E10098" stroke-opacity="0.46"/>
<line y1="-0.5" x2="40.9464" y2="-0.5" transform="matrix(-0.791686 -0.610928 0.626025 -0.779803 383.257 136.409)" stroke="#E10098" stroke-opacity="0.46"/>
<line y1="-0.5" x2="19.9937" y2="-0.5" transform="matrix(-0.793455 -0.608628 0.623824 -0.781565 399.121 148.578)" stroke="#E10098" stroke-opacity="0.46"/>
<line y1="-0.5" x2="65.1532" y2="-0.5" transform="matrix(0.780677 -0.624935 0.633592 0.773667 297.246 72.0948)" stroke="#E10098" stroke-opacity="0.46"/>
<ellipse cx="351.054" cy="112.295" rx="2.79081" ry="2.72472" transform="rotate(154.854 351.054 112.295)" fill="#84376B"/>
<ellipse cx="277.127" cy="132.652" rx="2.79081" ry="2.72472" transform="rotate(154.854 277.127 132.652)" fill="#84376B"/>
<ellipse cx="297.076" cy="72.1746" rx="2.79081" ry="2.72472" transform="rotate(154.854 297.076 72.1746)" fill="#84376B"/>
<ellipse cx="346.935" cy="32.2924" rx="2.79081" ry="2.72472" transform="rotate(154.854 346.935 32.2924)" fill="#84376B"/>
<ellipse cx="399.342" cy="148.795" rx="2.79081" ry="2.72472" transform="rotate(154.854 399.342 148.795)" fill="#84376B"/>
<ellipse cx="383.471" cy="137.31" rx="2.79081" ry="2.72472" transform="rotate(154.854 383.471 137.31)" fill="#84376B"/>
<ellipse cx="251.676" cy="42.0574" rx="2.79081" ry="2.72472" transform="rotate(154.854 251.676 42.0574)" fill="#84376B"/>
<line x1="297.551" y1="72.3329" x2="277.917" y2="131.158" stroke="#E10098" stroke-opacity="0.46"/>
<line y1="-0.5" x2="55.796" y2="-0.5" transform="matrix(0.827278 0.561793 -0.578868 0.815422 251.455 41.84)" stroke="#E10098" stroke-opacity="0.46"/>
<line x1="970.141" y1="126.473" x2="992.966" y2="97.3493" stroke="#E10098" stroke-opacity="0.44"/>
<line x1="977.405" y1="62.2514" x2="992.408" y2="99.2907" stroke="#E10098" stroke-opacity="0.44"/>
<line x1="939.774" y1="57.9609" x2="979.321" y2="63.7086" stroke="#E10098" stroke-opacity="0.44"/>
<line x1="931.659" y1="34.8122" x2="941.05" y2="57.1018" stroke="#E10098" stroke-opacity="0.44"/>
<line x1="993.083" y1="96.8971" x2="1029.44" y2="102.04" stroke="#E10098" stroke-opacity="0.44"/>
<line x1="1046.77" y1="80.5986" x2="1029.76" y2="102.839" stroke="#E10098" stroke-opacity="0.44"/>
<line x1="1029.83" y1="102.349" x2="1043.7" y2="136.881" stroke="#E10098" stroke-opacity="0.44"/>
<line x1="1043.32" y1="136.574" x2="1070.28" y2="140.828" stroke="#E10098" stroke-opacity="0.44"/>
<line x1="1070.67" y1="141.135" x2="1082.39" y2="170.247" stroke="#E10098" stroke-opacity="0.44"/>
<line x1="1082.07" y1="170.913" x2="1052.59" y2="179.835" stroke="#E10098" stroke-opacity="0.44"/>
<line x1="1082.41" y1="170.552" x2="1075.96" y2="197.093" stroke="#E10098" stroke-opacity="0.44"/>
<line x1="1081.95" y1="169.935" x2="1113.54" y2="171.433" stroke="#E10098" stroke-opacity="0.44"/>
<circle cx="941.383" cy="57.9034" r="4" transform="rotate(37.4104 941.383 57.9034)" fill="#84376B"/>
<circle cx="1081.93" cy="170.434" r="4" transform="rotate(37.4104 1081.93 170.434)" fill="#84376B"/>
<circle cx="1043.85" cy="136.273" r="4" transform="rotate(37.4104 1043.85 136.273)" fill="#84376B"/>
<circle cx="1070.2" cy="141.322" r="4" transform="rotate(37.4104 1070.2 141.322)" fill="#84376B"/>
<circle cx="1029.37" cy="102.535" r="4" transform="rotate(37.4104 1029.37 102.535)" fill="#84376B"/>
<circle cx="992.405" cy="98.1865" r="4" transform="rotate(37.4104 992.405 98.1865)" fill="#84376B"/>
<circle cx="970.535" cy="126.781" r="4" transform="rotate(37.4104 970.535 126.781)" fill="#84376B"/>
<circle cx="976.942" cy="62.4391" r="4" transform="rotate(37.4104 976.942 62.4391)" fill="#84376B"/>
<line x1="41.5505" y1="606.534" x2="112.163" y2="543.241" stroke="#E10098" stroke-opacity="0.33"/>
<line x1="115.404" y1="539.615" x2="210.062" y2="545.259" stroke="#E10098" stroke-opacity="0.33"/>
<circle cx="40.586" cy="607.282" r="4" transform="rotate(-104.225 40.586 607.282)" fill="#84376B"/>
<circle cx="137.849" cy="461.925" r="4" transform="rotate(-104.225 137.849 461.925)" fill="#84376B"/>
<path d="M68.7952 446.02C70.9366 445.478 73.1126 446.773 73.6554 448.915C74.1983 451.056 72.9024 453.232 70.761 453.775C68.6196 454.318 66.4436 453.022 65.9007 450.881C65.3579 448.739 66.6538 446.563 68.7952 446.02Z" fill="#84376B"/>
<path d="M68.7952 446.02C70.9366 445.478 73.1126 446.773 73.6554 448.915C74.1983 451.056 72.9024 453.232 70.761 453.775C68.6196 454.318 66.4436 453.022 65.9007 450.881C65.3579 448.739 66.6538 446.563 68.7952 446.02Z" fill="#84376B"/>
<path d="M55.1936 523.793C57.335 523.251 59.511 524.547 60.0539 526.688C60.5967 528.829 59.3009 531.005 57.1595 531.548C55.0181 532.091 52.842 530.795 52.2992 528.654C51.7563 526.512 53.0522 524.336 55.1936 523.793Z" fill="#84376B"/>
<path d="M112.936 535.953C115.077 535.41 117.253 536.706 117.796 538.848C118.339 540.989 117.043 543.165 114.901 543.708C112.76 544.251 110.584 542.955 110.041 540.813C109.498 538.672 110.794 536.496 112.936 535.953Z" fill="#84376B"/>
<circle cx="207.49" cy="545.371" r="4" transform="rotate(-104.225 207.49 545.371)" fill="#84376B"/>
<line x1="114.827" y1="539.715" x2="137.369" y2="461.786" stroke="#E10098" stroke-opacity="0.33"/>
<line x1="111.305" y1="539.245" x2="55.2882" y2="528.701" stroke="#E10098" stroke-opacity="0.33"/>
<line x1="113.844" y1="539.795" x2="70.0873" y2="449.877" stroke="#E10098" stroke-opacity="0.33"/>
</svg>
