<svg width="12" height="7" viewBox="0 0 12 7" fill="none" xmlns="http://www.w3.org/2000/svg">
<path d="M5.41286 4.69253L0.978598 0.604446C0.79457 0.434785 0.512064 0.431715 0.324392 0.597336V0.597336V0.597336C0.159391 0.814168 0.18638 1.12092 0.386709 1.30561L5.74313 6.24386C5.84408 6.33693 5.97364 6.39069 6.10329 6.3933C6.23294 6.39592 6.35207 6.34717 6.43446 6.2578L11.0545 1.24655C11.2483 1.03632 11.235 0.708773 11.0248 0.514957V0.514957C10.8145 0.321141 10.487 0.334445 10.2932 0.544674L6.44987 4.71344L6.29453 4.88194V4.88194C6.12294 5.06805 5.83297 5.07983 5.64685 4.90825L5.41286 4.69253Z" fill="#E10098"/>
</svg>
