<svg width="142" height="51" viewBox="0 0 142 51" fill="none" xmlns="http://www.w3.org/2000/svg">
<g clip-path="url(#clip0_14_335)">
<path d="M73.3119 16.8925L80.0677 16.4701C80.2218 17.5383 80.5043 18.3333 80.9667 18.9046C81.7117 19.7989 82.7391 20.2461 84.1006 20.2461C85.1024 20.2461 85.8987 20.0225 86.4381 19.5505C86.9519 19.1779 87.2601 18.5817 87.2601 17.9606C87.2601 17.3644 86.9776 16.7931 86.4895 16.4205C85.9758 15.9733 84.7685 15.5262 82.8676 15.1287C79.7594 14.458 77.5246 13.5637 76.2145 12.4209C74.9045 11.3528 74.1596 9.78772 74.2109 8.12333C74.2109 6.98061 74.5705 5.8379 75.2384 4.89391C76.009 3.82572 77.0622 2.9811 78.3209 2.50911C79.6823 1.93775 81.5832 1.63965 83.9721 1.63965C86.9005 1.63965 89.1353 2.16132 90.6766 3.22952C92.2178 4.27287 93.1426 5.9621 93.4251 8.27238L86.7464 8.64501C86.5666 7.65134 86.2069 6.93093 85.6161 6.45894C85.0253 5.98694 84.2547 5.76337 83.2529 5.76337C82.4309 5.76337 81.8144 5.93726 81.4034 6.2602C81.0181 6.5583 80.7612 7.00545 80.7869 7.50229C80.7869 7.87491 80.9924 8.2227 81.3007 8.44627C81.6346 8.74437 82.4309 9.01763 83.6896 9.26605C86.7978 9.91193 89.0069 10.5578 90.3683 11.2285C91.7297 11.8993 92.7059 12.719 93.2967 13.6879C93.9132 14.6815 94.2214 15.8243 94.1957 16.9918C94.1957 18.383 93.7847 19.7741 92.9627 20.9416C92.115 22.1589 90.9334 23.1029 89.5463 23.6742C88.0821 24.2953 86.2326 24.6182 84.0235 24.6182C80.119 24.6182 77.4219 23.8978 75.9063 22.4321C74.3907 20.9665 73.4917 19.1282 73.3119 16.8925ZM1.61831 24.2456V2.03712H13.4602C15.6436 2.03712 17.339 2.21101 18.4949 2.58363C19.6252 2.93142 20.627 3.65183 21.2949 4.62065C22.0398 5.68884 22.3994 6.93093 22.3737 8.2227C22.4508 10.4088 21.2949 12.4955 19.3169 13.5885C18.5463 14.0108 17.6986 14.3089 16.8253 14.458C17.4674 14.6319 18.1096 14.93 18.6747 15.2777C19.1114 15.6255 19.4711 16.023 19.805 16.4453C20.1903 16.8676 20.5242 17.3396 20.8068 17.8364L24.2489 24.2704H16.1831L12.3813 17.439C11.8933 16.5695 11.4823 15.9981 11.097 15.7249C10.5832 15.3771 9.96672 15.2032 9.35022 15.2032H8.73372V24.2208H1.61831V24.2456ZM8.73372 11.0298H11.7391C12.3813 10.9801 12.9978 10.8808 13.6143 10.7317C14.0767 10.6572 14.4877 10.4088 14.7703 10.0361C15.4638 9.14184 15.3611 7.87491 14.5134 7.10482C14.051 6.7322 13.152 6.53346 11.8676 6.53346H8.73372V11.0298ZM0 43.2743L6.75579 42.852C6.90991 43.9202 7.19247 44.7151 7.65485 45.2865C8.3741 46.1808 9.42728 46.6528 10.7887 46.6528C11.7905 46.6528 12.5868 46.4292 13.1263 45.9572C13.64 45.5598 13.9483 44.9884 13.9483 44.3674C13.9483 43.7712 13.6657 43.1998 13.1776 42.8272C12.6639 42.38 11.4566 41.9329 9.53003 41.5354C6.42185 40.8647 4.18705 39.9704 2.87699 38.8277C1.56693 37.7595 0.821997 36.1944 0.873372 34.5301C0.873372 33.3873 1.233 32.2446 1.90087 31.3006C2.67149 30.2324 3.72467 29.3878 4.98336 28.9158C6.34479 28.3445 8.24566 28.0464 10.6346 28.0464C13.563 28.0464 15.7978 28.568 17.339 29.6362C18.8802 30.7044 19.7793 32.3688 20.0619 34.6791L13.3831 35.0517C13.2033 34.0581 12.8437 33.3377 12.2529 32.8657C11.6878 32.3937 10.8915 32.1701 9.88965 32.1949C9.06766 32.1949 8.45116 32.3688 8.04016 32.7166C7.62916 33.0147 7.39797 33.4619 7.42366 33.9587C7.42366 34.3313 7.62916 34.6791 7.93741 34.9027C8.27135 35.2008 9.06766 35.474 10.3263 35.7225C13.4345 36.3683 15.6436 37.0142 17.0051 37.6849C18.3665 38.3557 19.3426 39.1754 19.9334 40.1443C20.5499 41.1379 20.8582 42.2807 20.8582 43.4234C20.8582 44.8145 20.4215 46.1808 19.6252 47.3484C18.7775 48.5656 17.5959 49.5096 16.2088 50.081C14.7446 50.702 12.8951 51.0249 10.686 51.0249C6.78148 51.0249 4.0843 50.3045 2.56874 48.8389C1.05318 47.3484 0.205499 45.5101 0 43.2743Z" fill="white"/>
<path d="M34.1643 41.5354L40.3806 43.3489C40.0467 44.8642 39.3531 46.305 38.4027 47.572C37.5293 48.6898 36.3734 49.5593 35.0633 50.1307C33.7276 50.702 32.0322 51.0001 29.9772 51.0001C27.4855 51.0001 25.4305 50.6523 23.8636 49.9568C22.271 49.2612 20.9096 48.0191 19.7536 46.2553C18.5977 44.4916 18.0326 42.231 18.0326 39.4736C18.0326 35.797 19.0344 32.965 21.0637 31.0025C23.093 29.0401 25.9443 28.0464 29.6433 28.0464C32.5459 28.0464 34.8064 28.6177 36.4761 29.7356C38.1201 30.8783 39.3531 32.6173 40.1751 34.9524L33.9074 36.2938C33.7533 35.7722 33.5221 35.2505 33.2138 34.8033C32.8285 34.2817 32.3404 33.8842 31.7496 33.5861C31.1588 33.288 30.491 33.1638 29.8231 33.1638C28.2048 33.1638 26.9718 33.7848 26.1241 35.0517C25.4819 35.9709 25.148 37.4365 25.148 39.4239C25.148 41.8832 25.5333 43.5724 26.3039 44.4916C27.0745 45.4107 28.1534 45.8579 29.5662 45.8579C30.9276 45.8579 31.9551 45.4853 32.6487 44.7648C33.3423 43.9948 33.856 42.9266 34.1643 41.5354ZM48.6776 28.419H55.7674V36.1945H63.525V28.419H70.6661V50.6275H63.525V41.6348H55.7674V50.6275H48.6776V28.419Z" fill="white"/>
<path d="M69.6899 39.5232C69.6899 35.8963 70.7431 33.0643 72.8238 31.0522C74.9045 29.04 77.8329 28.0215 81.5575 28.0215C85.385 28.0215 88.3133 29.0152 90.394 31.0025C92.4747 32.9898 93.5022 35.7721 93.5022 39.3493C93.5022 41.9577 93.0398 44.0692 92.1407 45.7336C91.2674 47.3732 89.9059 48.7146 88.2363 49.6089C86.5152 50.5281 84.3831 51.0001 81.8401 51.0001C79.2457 51.0001 77.1136 50.6026 75.4182 49.8076C73.6715 48.963 72.233 47.6464 71.2826 46.0317C70.2294 44.2928 69.6899 42.1316 69.6899 39.5232ZM76.7797 39.548C76.7797 41.7838 77.2164 43.3985 78.064 44.3922C78.9117 45.361 80.0933 45.8578 81.5832 45.8578C83.0988 45.8578 84.2804 45.3858 85.1281 44.417C85.9758 43.4482 86.3868 41.7341 86.3868 39.2499C86.3868 37.1632 85.9501 35.623 85.0767 34.6791C84.2033 33.7102 83.0217 33.2382 81.5318 33.2382C80.2218 33.1886 78.9631 33.7351 78.0897 34.7039C77.2164 35.6727 76.7797 37.2874 76.7797 39.548ZM100.772 39.5232C100.772 35.8963 101.825 33.0643 103.906 31.0522C105.986 29.04 108.915 28.0215 112.639 28.0215C116.467 28.0215 119.421 29.0152 121.476 31.0025C123.531 32.9898 124.584 35.7721 124.584 39.3493C124.584 41.9577 124.122 44.0692 123.223 45.7336C122.349 47.3732 120.988 48.7146 119.318 49.6089C117.597 50.5281 115.465 51.0001 112.922 51.0001C110.327 51.0001 108.195 50.6026 106.5 49.8076C104.753 48.963 103.315 47.6464 102.364 46.0317C101.311 44.2928 100.772 42.1316 100.772 39.5232ZM107.861 39.548C107.861 41.7838 108.298 43.3985 109.146 44.3922C109.993 45.361 111.175 45.8578 112.665 45.8578C114.181 45.8578 115.362 45.3858 116.21 44.417C117.058 43.4482 117.469 41.7341 117.469 39.2499C117.469 37.1632 117.032 35.623 116.158 34.6791C115.285 33.7102 114.103 33.2382 112.614 33.2382C111.304 33.1886 110.019 33.7351 109.171 34.7039C108.298 35.6727 107.861 37.2874 107.861 39.548Z" fill="white"/>
<path d="M123.839 28.4189H130.929V45.1622H142V50.6274H123.813V28.4189H123.839Z" fill="white"/>
<path d="M116.025 27.1373C123.162 21.9355 125.363 13.1175 120.941 7.44182C116.518 1.76616 107.146 1.38205 100.009 6.5839C92.8708 11.7858 90.6697 20.6037 95.0924 26.2794C99.5151 31.9551 108.887 32.3392 116.025 27.1373Z" fill="white"/>
<mask id="mask0_14_335" style="mask-type:luminance" maskUnits="userSpaceOnUse" x="92" y="2" width="32" height="29">
<path d="M116.025 27.1373C123.162 21.9355 125.363 13.1175 120.941 7.44182C116.518 1.76616 107.146 1.38205 100.009 6.5839C92.8708 11.7858 90.6697 20.6037 95.0924 26.2794C99.5151 31.9551 108.887 32.3392 116.025 27.1373Z" fill="white"/>
</mask>
<g mask="url(#mask0_14_335)">
<path d="M76.8888 14.0457L113.774 -12.8353L139.298 19.9193L102.412 46.8002L76.8888 14.0457Z" fill="white"/>
<mask id="mask1_14_335" style="mask-type:luminance" maskUnits="userSpaceOnUse" x="76" y="-13" width="64" height="60">
<path d="M76.8888 14.0457L113.774 -12.8353L139.298 19.9193L102.412 46.8002L76.8888 14.0457Z" fill="white"/>
</mask>
<g mask="url(#mask1_14_335)">
<path d="M116.025 27.1373C123.162 21.9355 125.363 13.1175 120.941 7.44182C116.518 1.76616 107.146 1.38205 100.009 6.5839C92.8708 11.7858 90.6697 20.6037 95.0924 26.2794C99.5151 31.9551 108.887 32.3392 116.025 27.1373Z" fill="white"/>
<mask id="mask2_14_335" style="mask-type:luminance" maskUnits="userSpaceOnUse" x="92" y="2" width="32" height="29">
<path d="M116.025 27.1373C123.162 21.9355 125.363 13.1175 120.941 7.44182C116.518 1.76616 107.146 1.38205 100.009 6.5839C92.8708 11.7858 90.6697 20.6037 95.0924 26.2794C99.5151 31.9551 108.887 32.3392 116.025 27.1373Z" fill="white"/>
</mask>
<g mask="url(#mask2_14_335)">
<path d="M87.1601 16.2329L112.988 -2.58928L129.019 17.9842L103.191 36.8064L87.1601 16.2329Z" fill="white"/>
<mask id="mask3_14_335" style="mask-type:luminance" maskUnits="userSpaceOnUse" x="87" y="-3" width="43" height="40">
<path d="M87.1601 16.2329L112.988 -2.58928L129.019 17.9842L103.191 36.8064L87.1601 16.2329Z" fill="white"/>
</mask>
<g mask="url(#mask3_14_335)">
<path d="M116.025 27.1373C123.162 21.9355 125.363 13.1175 120.941 7.44182C116.518 1.76616 107.146 1.38205 100.009 6.5839C92.8708 11.7858 90.6697 20.6037 95.0924 26.2794C99.5151 31.9551 108.887 32.3392 116.025 27.1373Z" fill="white" stroke="white" stroke-width="4" stroke-miterlimit="10"/>
</g>
<mask id="mask4_14_335" style="mask-type:luminance" maskUnits="userSpaceOnUse" x="90" y="-2" width="36" height="38">
<path d="M90.8407 28.499L99.6278 -1.47573L125.361 5.7143L116.574 35.6891L90.8407 28.499Z" fill="white"/>
</mask>
<g mask="url(#mask4_14_335)">
<path d="M87.1601 16.1438L112.895 -2.58925L129.019 18.0734L103.284 36.8064L87.1601 16.1438Z" stroke="white" stroke-width="4" stroke-miterlimit="10"/>
</g>
<path d="M116.025 27.1373C123.162 21.9355 125.363 13.1175 120.941 7.44182C116.518 1.76616 107.146 1.38205 100.009 6.5839C92.8708 11.7858 90.6697 20.6037 95.0924 26.2794C99.5151 31.9551 108.887 32.3392 116.025 27.1373Z" stroke="white" stroke-width="4" stroke-miterlimit="10"/>
<path d="M87.1601 16.2329L112.988 -2.58928L129.019 17.9842L103.191 36.8064L87.1601 16.2329Z" fill="white"/>
<mask id="mask5_14_335" style="mask-type:luminance" maskUnits="userSpaceOnUse" x="87" y="-3" width="43" height="40">
<path d="M87.1601 16.2329L112.988 -2.58928L129.019 17.9842L103.191 36.8064L87.1601 16.2329Z" fill="white"/>
</mask>
<g mask="url(#mask5_14_335)">
<path d="M116.025 27.1373C123.162 21.9355 125.363 13.1175 120.941 7.44182C116.518 1.76616 107.146 1.38205 100.009 6.5839C92.8708 11.7858 90.6697 20.6037 95.0924 26.2794C99.5151 31.9551 108.887 32.3392 116.025 27.1373Z" fill="white" stroke="white" stroke-width="4" stroke-miterlimit="10"/>
</g>
<mask id="mask6_14_335" style="mask-type:luminance" maskUnits="userSpaceOnUse" x="90" y="-2" width="36" height="38">
<path d="M90.8407 28.499L99.6278 -1.47573L125.361 5.7143L116.574 35.6891L90.8407 28.499Z" fill="white"/>
</mask>
<g mask="url(#mask6_14_335)">
<path d="M87.1601 16.1438L112.895 -2.58925L129.019 18.0734L103.284 36.8064L87.1601 16.1438Z" stroke="white" stroke-width="4" stroke-miterlimit="10"/>
</g>
<path d="M76.8888 14.0457L113.774 -12.8353L139.298 19.9193L102.412 46.8002L76.8888 14.0457Z" stroke="white" stroke-width="4" stroke-miterlimit="10"/>
</g>
<path d="M116.025 27.1373C123.162 21.9355 125.363 13.1175 120.941 7.44182C116.518 1.76616 107.146 1.38205 100.009 6.5839C92.8708 11.7858 90.6697 20.6037 95.0924 26.2794C99.5151 31.9551 108.887 32.3392 116.025 27.1373Z" stroke="white" stroke-width="4" stroke-miterlimit="10"/>
<path d="M100.797 15.228L103.366 13.4891L106.526 17.8364C107.065 18.5319 107.476 19.2772 107.784 20.097C107.964 20.718 107.913 21.3887 107.656 21.9849C107.322 22.7302 106.783 23.3512 106.063 23.7984C105.216 24.3697 104.496 24.6927 103.88 24.7921C103.289 24.8914 102.673 24.7921 102.107 24.5436C101.491 24.2455 100.952 23.8232 100.541 23.2767L102.75 21.2894C102.929 21.5626 103.161 21.8111 103.418 22.0098C103.597 22.134 103.803 22.2085 104.034 22.2085C104.214 22.2085 104.394 22.134 104.522 22.0346C104.779 21.8856 104.959 21.5875 104.933 21.2894C104.856 20.8671 104.676 20.4448 104.394 20.1218L100.797 15.228ZM108.504 17.9854L110.841 16.1968C111.098 16.4949 111.432 16.7185 111.792 16.8427C112.305 16.9918 112.845 16.8924 113.281 16.5695C113.59 16.3707 113.847 16.0975 113.949 15.7497C114.103 15.3025 113.847 14.8057 113.384 14.6566C113.307 14.6318 113.23 14.607 113.153 14.607C112.845 14.5821 112.305 14.7063 111.509 15.0293C110.199 15.5509 109.171 15.7497 108.401 15.6752C107.656 15.6006 106.962 15.228 106.551 14.607C106.243 14.1847 106.089 13.6878 106.063 13.191C106.063 12.6196 106.217 12.0483 106.551 11.5763C107.039 10.9055 107.63 10.3342 108.349 9.88704C109.428 9.16663 110.379 8.81885 111.201 8.81885C112.023 8.81885 112.793 9.19147 113.513 9.96157L111.201 11.7253C110.738 11.154 109.865 11.0298 109.274 11.4769L109.197 11.5514C108.94 11.7005 108.76 11.9241 108.658 12.1973C108.581 12.3961 108.632 12.6196 108.76 12.7935C108.863 12.9177 109.017 13.0171 109.197 13.0171C109.403 13.0419 109.762 12.9426 110.276 12.719C111.56 12.1973 112.537 11.8992 113.204 11.7999C113.77 11.7005 114.36 11.7502 114.9 11.9737C115.388 12.1725 115.799 12.5203 116.081 12.9426C116.441 13.4394 116.647 14.0356 116.672 14.6566C116.698 15.3025 116.518 15.9236 116.158 16.4701C115.696 17.1408 115.105 17.7122 114.412 18.1593C112.999 19.1033 111.843 19.5008 110.918 19.3517C109.916 19.2027 109.094 18.7058 108.504 17.9854Z" fill="black"/>
</g>
</g>
</g>
<defs>
<clipPath id="clip0_14_335">
<rect width="142" height="51" fill="white"/>
</clipPath>
</defs>
</svg>
