<svg width="1049" height="761" viewBox="0 0 1049 761" fill="none" xmlns="http://www.w3.org/2000/svg">
<line x1="950.962" y1="703.654" x2="875.438" y2="646.311" stroke="#E10098" stroke-opacity="0.44"/>
<line x1="872.828" y1="644.903" x2="860.436" y2="550.89" stroke="#E10098" stroke-opacity="0.44"/>
<circle cx="953.444" cy="705.546" r="4" transform="rotate(154.854 953.444 705.546)" fill="#84376B"/>
<circle cx="792.292" cy="637.583" r="4" transform="rotate(154.854 792.292 637.583)" fill="#84376B"/>
<circle cx="873.08" cy="644.952" r="4" transform="rotate(154.854 873.08 644.952)" fill="#84376B"/>
<circle cx="861.033" cy="553.394" r="4" transform="rotate(154.854 861.033 553.394)" fill="#84376B"/>
<line x1="873.035" y1="645.45" x2="792.247" y2="638.081" stroke="#E10098" stroke-opacity="0.44"/>
<line y1="-0.5" x2="64.9342" y2="-0.5" transform="matrix(-0.802402 -0.596783 0.612476 -0.790489 364.022 111.567)" stroke="#E10098" stroke-opacity="0.46"/>
<line y1="-0.5" x2="40.9464" y2="-0.5" transform="matrix(-0.791686 -0.610928 0.626025 -0.779803 396.257 136.409)" stroke="#E10098" stroke-opacity="0.46"/>
<line y1="-0.5" x2="19.9937" y2="-0.5" transform="matrix(-0.793455 -0.608628 0.623824 -0.781565 412.121 148.578)" stroke="#E10098" stroke-opacity="0.46"/>
<line y1="-0.5" x2="65.1532" y2="-0.5" transform="matrix(0.780677 -0.624935 0.633592 0.773667 310.246 72.0948)" stroke="#E10098" stroke-opacity="0.46"/>
<ellipse cx="364.054" cy="112.295" rx="2.79081" ry="2.72472" transform="rotate(154.854 364.054 112.295)" fill="#84376B"/>
<ellipse cx="290.127" cy="132.652" rx="2.79081" ry="2.72472" transform="rotate(154.854 290.127 132.652)" fill="#84376B"/>
<ellipse cx="310.076" cy="72.1746" rx="2.79081" ry="2.72472" transform="rotate(154.854 310.076 72.1746)" fill="#84376B"/>
<ellipse cx="359.935" cy="32.2924" rx="2.79081" ry="2.72472" transform="rotate(154.854 359.935 32.2924)" fill="#84376B"/>
<ellipse cx="412.342" cy="148.795" rx="2.79081" ry="2.72472" transform="rotate(154.854 412.342 148.795)" fill="#84376B"/>
<ellipse cx="396.471" cy="137.31" rx="2.79081" ry="2.72472" transform="rotate(154.854 396.471 137.31)" fill="#84376B"/>
<ellipse cx="264.676" cy="42.0574" rx="2.79081" ry="2.72472" transform="rotate(154.854 264.676 42.0574)" fill="#84376B"/>
<line x1="310.55" y1="72.3329" x2="290.917" y2="131.158" stroke="#E10098" stroke-opacity="0.46"/>
<line y1="-0.5" x2="55.796" y2="-0.5" transform="matrix(0.827278 0.561793 -0.578868 0.815422 264.455 41.84)" stroke="#E10098" stroke-opacity="0.46"/>
<line x1="886.141" y1="151.473" x2="908.966" y2="122.349" stroke="#E10098" stroke-opacity="0.44"/>
<line x1="893.405" y1="87.2514" x2="908.408" y2="124.291" stroke="#E10098" stroke-opacity="0.44"/>
<line x1="855.774" y1="82.9609" x2="895.321" y2="88.7086" stroke="#E10098" stroke-opacity="0.44"/>
<line x1="847.659" y1="59.8122" x2="857.049" y2="82.1018" stroke="#E10098" stroke-opacity="0.44"/>
<line x1="909.083" y1="121.897" x2="945.436" y2="127.04" stroke="#E10098" stroke-opacity="0.44"/>
<line x1="962.774" y1="105.599" x2="945.763" y2="127.839" stroke="#E10098" stroke-opacity="0.44"/>
<line x1="945.83" y1="127.349" x2="959.705" y2="161.881" stroke="#E10098" stroke-opacity="0.44"/>
<line x1="959.319" y1="161.574" x2="986.28" y2="165.828" stroke="#E10098" stroke-opacity="0.44"/>
<line x1="986.665" y1="166.135" x2="998.391" y2="195.247" stroke="#E10098" stroke-opacity="0.44"/>
<line x1="998.073" y1="195.913" x2="968.587" y2="204.835" stroke="#E10098" stroke-opacity="0.44"/>
<line x1="998.414" y1="195.552" x2="991.963" y2="222.093" stroke="#E10098" stroke-opacity="0.44"/>
<line x1="997.951" y1="194.935" x2="1029.54" y2="196.433" stroke="#E10098" stroke-opacity="0.44"/>
<circle cx="857.383" cy="82.9035" r="4" transform="rotate(37.4104 857.383 82.9035)" fill="#84376B"/>
<circle cx="997.928" cy="195.434" r="4" transform="rotate(37.4104 997.928 195.434)" fill="#84376B"/>
<circle cx="959.848" cy="161.273" r="4" transform="rotate(37.4104 959.848 161.273)" fill="#84376B"/>
<circle cx="986.202" cy="166.322" r="4" transform="rotate(37.4104 986.202 166.322)" fill="#84376B"/>
<circle cx="945.366" cy="127.535" r="4" transform="rotate(37.4104 945.366 127.535)" fill="#84376B"/>
<circle cx="908.405" cy="123.187" r="4" transform="rotate(37.4104 908.405 123.187)" fill="#84376B"/>
<circle cx="886.534" cy="151.781" r="4" transform="rotate(37.4104 886.534 151.781)" fill="#84376B"/>
<circle cx="892.941" cy="87.4391" r="4" transform="rotate(37.4104 892.941 87.4391)" fill="#84376B"/>
<line x1="41.5505" y1="553.534" x2="112.163" y2="490.241" stroke="#E10098" stroke-opacity="0.33"/>
<line x1="115.404" y1="486.615" x2="210.062" y2="492.259" stroke="#E10098" stroke-opacity="0.33"/>
<circle cx="40.5861" cy="554.282" r="4" transform="rotate(-104.225 40.5861 554.282)" fill="#84376B"/>
<circle cx="137.85" cy="408.925" r="4" transform="rotate(-104.225 137.85 408.925)" fill="#84376B"/>
<path d="M68.7953 393.02C70.9367 392.478 73.1127 393.773 73.6556 395.915C74.1984 398.056 72.9025 400.232 70.7611 400.775C68.6197 401.318 66.4437 400.022 65.9009 397.881C65.358 395.739 66.6539 393.563 68.7953 393.02Z" fill="#84376B"/>
<path d="M68.7953 393.02C70.9367 392.478 73.1127 393.773 73.6556 395.915C74.1984 398.056 72.9025 400.232 70.7611 400.775C68.6197 401.318 66.4437 400.022 65.9009 397.881C65.358 395.739 66.6539 393.563 68.7953 393.02Z" fill="#84376B"/>
<path d="M55.1937 470.793C57.3351 470.251 59.5112 471.547 60.054 473.688C60.5969 475.829 59.301 478.005 57.1596 478.548C55.0182 479.091 52.8422 477.795 52.2993 475.654C51.7564 473.512 53.0523 471.336 55.1937 470.793Z" fill="#84376B"/>
<path d="M112.936 482.953C115.077 482.41 117.253 483.706 117.796 485.848C118.339 487.989 117.043 490.165 114.902 490.708C112.76 491.251 110.584 489.955 110.041 487.813C109.498 485.672 110.794 483.496 112.936 482.953Z" fill="#84376B"/>
<circle cx="207.49" cy="492.371" r="4" transform="rotate(-104.225 207.49 492.371)" fill="#84376B"/>
<line x1="114.828" y1="486.715" x2="137.369" y2="408.786" stroke="#E10098" stroke-opacity="0.33"/>
<line x1="111.305" y1="486.245" x2="55.2884" y2="475.701" stroke="#E10098" stroke-opacity="0.33"/>
<line x1="113.845" y1="486.795" x2="70.0874" y2="396.877" stroke="#E10098" stroke-opacity="0.33"/>
</svg>
